<svg width="26" height="31" viewBox="0 0 26 31" fill="none" xmlns="http://www.w3.org/2000/svg">
<path fill-rule="evenodd" clip-rule="evenodd" d="M12.905 3.1C9.48088 3.1 6.70505 5.87583 6.70505 9.3C6.70505 12.7242 9.48088 15.5 12.905 15.5C16.3293 15.5 19.105 12.7242 19.105 9.3C19.105 5.87583 16.3293 3.1 12.905 3.1ZM18.5485 16.6926C20.7712 14.9931 22.205 12.314 22.205 9.3C22.205 4.16375 18.0412 0 12.905 0C7.7688 0 3.60505 4.16375 3.60505 9.3C3.60505 12.314 5.03881 14.9931 7.26151 16.6926C5.70303 17.382 4.26924 18.3576 3.04091 19.5858C2.09242 20.5344 1.29454 21.6054 0.66279 22.7619C-0.502985 24.8959 -0.0275598 27.0718 1.28532 28.6105C2.54919 30.0917 4.57383 31 6.70505 31H19.105C21.2362 31 23.2609 30.0917 24.5247 28.6105C25.8377 27.0718 26.3131 24.8959 25.1474 22.7619C24.5156 21.6054 23.7176 20.5344 22.7692 19.5858C21.5408 18.3576 20.1071 17.382 18.5485 16.6926ZM12.905 18.6C10.0275 18.6 7.26771 19.7431 5.23293 21.778C4.49513 22.5158 3.87465 23.3487 3.38333 24.248C2.90753 25.119 3.06103 25.9157 3.6435 26.5983C4.27497 27.3383 5.4121 27.9 6.70505 27.9H19.105C20.398 27.9 21.5351 27.3383 22.1666 26.5983C22.749 25.9157 22.9025 25.119 22.4268 24.248C21.9355 23.3487 21.315 22.5158 20.5772 21.778C18.5423 19.7431 15.7826 18.6 12.905 18.6Z" fill="black"/>
</svg>
