<svg width="32" height="32" viewBox="0 0 32 32" fill="none" xmlns="http://www.w3.org/2000/svg">
<path fill-rule="evenodd" clip-rule="evenodd" d="M16 0C17.1046 0 18 0.716344 18 1.6V3.33274C23.6754 4.09446 28 8.0432 28 12.8V19.28C30.2822 19.6506 32 21.2648 32 23.2C32 25.4091 29.7614 27.2 27 27.2H22C22 29.851 19.3137 32 16 32C12.6863 32 10 29.851 10 27.2H5C2.23858 27.2 0 25.4091 0 23.2C0 21.2648 1.71776 19.6506 4 19.28V12.8C4 8.0432 8.32458 4.09446 14 3.33274V1.6C14 0.716344 14.8954 0 16 0ZM14 27.2C14 28.0837 14.8954 28.8 16 28.8C17.1046 28.8 18 28.0837 18 27.2H14ZM5 24C4.44772 24 4 23.6418 4 23.2C4 22.7582 4.44772 22.4 5 22.4H6C7.10456 22.4 8 21.6837 8 20.8V12.8C8 9.26538 11.5817 6.4 16 6.4C20.4182 6.4 24 9.26538 24 12.8V20.8C24 21.6837 24.8954 22.4 26 22.4H27C27.5522 22.4 28 22.7582 28 23.2C28 23.6418 27.5522 24 27 24H5Z" fill="white"/>
</svg>
