<svg width="32" height="32" viewBox="0 0 32 32" fill="none" xmlns="http://www.w3.org/2000/svg">
<path fill-rule="evenodd" clip-rule="evenodd" d="M0 1.6C0 0.716344 0.6986 0 1.56037 0H2.75238C4.52546 0 6.14635 1.02721 6.93929 2.65338L7.20583 3.2H27.3171C30.3117 3.2 32.5363 6.0436 31.8866 9.04126L30.1529 17.0413C29.677 19.2374 27.7774 20.8 25.5833 20.8H11.8656C9.67156 20.8 7.7719 19.2374 7.29594 17.0413L4.75994 5.33936L4.14802 4.08446C3.88371 3.5424 3.3434 3.2 2.75238 3.2H1.56037C0.6986 3.2 0 2.48365 0 1.6ZM8.18666 6.4L10.3424 16.347C10.501 17.0792 11.1342 17.6 11.8656 17.6H25.5833C26.3147 17.6 26.9479 17.0792 27.1064 16.347L28.8403 8.34709C29.0567 7.34787 28.3152 6.4 27.3171 6.4H8.18666ZM12.4829 25.6C11.6212 25.6 10.9226 26.3163 10.9226 27.2C10.9226 28.0837 11.6212 28.8 12.4829 28.8C13.3447 28.8 14.0433 28.0837 14.0433 27.2C14.0433 26.3163 13.3447 25.6 12.4829 25.6ZM7.80184 27.2C7.80184 24.549 9.89765 22.4 12.4829 22.4C15.0682 22.4 17.1641 24.549 17.1641 27.2C17.1641 29.851 15.0682 32 12.4829 32C9.89765 32 7.80184 29.851 7.80184 27.2ZM24.9659 25.6C24.1041 25.6 23.4055 26.3163 23.4055 27.2C23.4055 28.0837 24.1041 28.8 24.9659 28.8C25.8277 28.8 26.5263 28.0837 26.5263 27.2C26.5263 26.3163 25.8277 25.6 24.9659 25.6ZM20.2848 27.2C20.2848 24.549 22.3805 22.4 24.9659 22.4C27.5513 22.4 29.647 24.549 29.647 27.2C29.647 29.851 27.5513 32 24.9659 32C22.3805 32 20.2848 29.851 20.2848 27.2Z" fill="white"/>
</svg>
