<svg width="32" height="32" viewBox="0 0 32 32" fill="none" xmlns="http://www.w3.org/2000/svg">
<path fill-rule="evenodd" clip-rule="evenodd" d="M25.0225 12.5113C25.0225 5.60149 19.4212 0 12.5113 0C5.60149 0 0 5.60149 0 12.5113C0 19.4212 5.60149 25.0225 12.5113 25.0225C15.3582 25.0225 17.9849 24.0703 20.0871 22.4689L29.1249 31.5067C29.7826 32.1644 30.8491 32.1644 31.5067 31.5067C32.1644 30.8491 32.1644 29.7826 31.5067 29.1249L22.4689 20.0871C24.0703 17.9849 25.0225 15.3582 25.0225 12.5113ZM12.5113 3.36843C17.5608 3.36843 21.6541 7.46182 21.6541 12.5113C21.6541 15.0365 20.6326 17.3199 18.9764 18.9764C17.3199 20.6326 15.0365 21.6541 12.5113 21.6541C7.46182 21.6541 3.36843 17.5608 3.36843 12.5113C3.36843 7.46182 7.46182 3.36843 12.5113 3.36843Z" fill="white"/>
</svg>
