<svg width="33" height="32" viewBox="0 0 33 32" fill="none" xmlns="http://www.w3.org/2000/svg">
<path d="M18.2592 0.719862C17.6979 0.253347 17.0069 0 16.2947 0C15.5835 0 14.8915 0.253347 14.3302 0.719862L0.915778 11.8571C-0.28758 12.8599 0.374655 14.9182 1.90011 14.9182H3.49467V28.5836C3.49467 29.4897 3.83167 30.3586 4.43229 30.9994C5.03184 31.64 5.84611 32 6.69442 32H13.0949V21.7509C13.0949 20.8448 13.4319 19.9759 14.0325 19.3351C14.6321 18.6945 15.4464 18.3345 16.2947 18.3345C17.143 18.3345 17.9573 18.6945 18.5579 19.3351C19.1574 19.9759 19.4944 20.8448 19.4944 21.7509V32H25.895C26.7433 32 27.5576 31.64 28.1571 30.9994C28.7577 30.3586 29.0947 29.4897 29.0947 28.5836V14.9182H30.6893C32.2126 14.9182 32.8781 12.8599 31.6736 11.8589L18.2592 0.719862Z" fill="white"/>
</svg>
